<svg width="26" height="24" viewBox="0 0 26 24" fill="none" xmlns="http://www.w3.org/2000/svg">
<path d="M22.0276 16V7.99999C22.0272 7.64927 21.9331 7.3048 21.7548 7.00116C21.5765 6.69751 21.3202 6.44536 21.0116 6.26999L13.8999 2.26999C13.591 2.09446 13.2406 2.00204 12.8839 2.00204C12.5272 2.00204 12.1768 2.09446 11.8679 2.26999L4.75617 6.26999C4.44758 6.44536 4.19127 6.69751 4.01295 7.00116C3.83463 7.3048 3.74057 7.64927 3.7402 7.99999V16C3.74057 16.3507 3.83463 16.6952 4.01295 16.9988C4.19127 17.3025 4.44758 17.5546 4.75617 17.73L11.8679 21.73C12.1768 21.9055 12.5272 21.9979 12.8839 21.9979C13.2406 21.9979 13.591 21.9055 13.8999 21.73L21.0116 17.73C21.3202 17.5546 21.5765 17.3025 21.7548 16.9988C21.9331 16.6952 22.0272 16.3507 22.0276 16Z" stroke="#338573" stroke-width="2" stroke-linecap="round" stroke-linejoin="round"/>
<path d="M8.31207 4.20999L12.8839 6.80999L17.4558 4.20999" stroke="#338573" stroke-width="2" stroke-linecap="round" stroke-linejoin="round"/>
<path d="M8.31205 19.79V14.6L3.7402 12" stroke="#338573" stroke-width="2" stroke-linecap="round" stroke-linejoin="round"/>
<path d="M22.0276 12L17.4557 14.6V19.79" stroke="#338573" stroke-width="2" stroke-linecap="round" stroke-linejoin="round"/>
<path d="M4.01453 6.95999L12.8839 12.01L21.7533 6.95999" stroke="#338573" stroke-width="2" stroke-linecap="round" stroke-linejoin="round"/>
<path d="M12.8839 22.08V12" stroke="#338573" stroke-width="2" stroke-linecap="round" stroke-linejoin="round"/>
</svg>
